<svg id="visual" viewBox="0 0 540 960" width="540" height="960" xmlns="http://www.w3.org/2000/svg" xmlns:xlink="http://www.w3.org/1999/xlink" version="1.1"><rect x="0" y="0" width="540" height="960" fill="#cecece"></rect><path d="M0 314L18 330.3C36 346.7 72 379.3 108 403.8C144 428.3 180 444.7 216 459.7C252 474.7 288 488.3 324 479.3C360 470.3 396 438.7 432 424.5C468 410.3 504 413.7 522 415.3L540 417L540 961L522 961C504 961 468 961 432 961C396 961 360 961 324 961C288 961 252 961 216 961C180 961 144 961 108 961C72 961 36 961 18 961L0 961Z" fill="#71b7e0"></path><path d="M0 574L18 585.3C36 596.7 72 619.3 108 635.5C144 651.7 180 661.3 216 653.8C252 646.3 288 621.7 324 611.7C360 601.7 396 606.3 432 614.3C468 622.3 504 633.7 522 639.3L540 645L540 961L522 961C504 961 468 961 432 961C396 961 360 961 324 961C288 961 252 961 216 961C180 961 144 961 108 961C72 961 36 961 18 961L0 961Z" fill="#488cc5"></path><path d="M0 679L18 698C36 717 72 755 108 778.2C144 801.3 180 809.7 216 809.7C252 809.7 288 801.3 324 787.3C360 773.3 396 753.7 432 744.2C468 734.7 504 735.3 522 735.7L540 736L540 961L522 961C504 961 468 961 432 961C396 961 360 961 324 961C288 961 252 961 216 961C180 961 144 961 108 961C72 961 36 961 18 961L0 961Z" fill="#3160a6"></path></svg>