<svg id="visual" viewBox="0 0 960 540" width="960" height="540" xmlns="http://www.w3.org/2000/svg" xmlns:xlink="http://www.w3.org/1999/xlink" version="1.1"><rect x="0" y="0" width="960" height="540" fill="#ebebeb"></rect><path d="M0 188L32 195.5C64 203 128 218 192 232.7C256 247.3 320 261.7 384 269.2C448 276.7 512 277.3 576 262.5C640 247.7 704 217.3 768 211.7C832 206 896 225 928 234.5L960 244L960 541L928 541C896 541 832 541 768 541C704 541 640 541 576 541C512 541 448 541 384 541C320 541 256 541 192 541C128 541 64 541 32 541L0 541Z" fill="#71b7e0"></path><path d="M0 392L32 379.3C64 366.7 128 341.3 192 341.3C256 341.3 320 366.7 384 364C448 361.3 512 330.7 576 330.5C640 330.3 704 360.7 768 376.2C832 391.7 896 392.3 928 392.7L960 393L960 541L928 541C896 541 832 541 768 541C704 541 640 541 576 541C512 541 448 541 384 541C320 541 256 541 192 541C128 541 64 541 32 541L0 541Z" fill="#488cc5"></path><path d="M0 420L32 426.3C64 432.7 128 445.3 192 443.8C256 442.3 320 426.7 384 417.7C448 408.7 512 406.3 576 418.7C640 431 704 458 768 459C832 460 896 435 928 422.5L960 410L960 541L928 541C896 541 832 541 768 541C704 541 640 541 576 541C512 541 448 541 384 541C320 541 256 541 192 541C128 541 64 541 32 541L0 541Z" fill="#3160a6"></path></svg>